<svg xmlns="http://www.w3.org/2000/svg" version="1.1" xmlns:xlink="http://www.w3.org/1999/xlink" xmlns:svgjs="http://svgjs.dev/svgjs" width="1000" height="1000"><g clip-path="url(#SvgjsClipPath1114)"><rect width="1000" height="1000" fill="#ffffff"></rect><g transform="matrix(1.5625,0,0,1.5625,0,125)"><svg xmlns="http://www.w3.org/2000/svg" version="1.1" xmlns:xlink="http://www.w3.org/1999/xlink" xmlns:svgjs="http://svgjs.dev/svgjs" width="640" height="480"><svg xmlns="http://www.w3.org/2000/svg" xmlns:xlink="http://www.w3.org/1999/xlink" version="1.1" width="640" height="480" viewBox="0 0 640 480" xml:space="preserve">
<desc>Created with Fabric.js 3.6.6</desc>
<defs>
<clipPath id="SvgjsClipPath1114"><rect width="1000" height="1000" x="0" y="0" rx="500" ry="500"></rect></clipPath></defs>
<g transform="matrix(1.11 0 0 1.11 319.49 239.46)">
<g style="">
		<g transform="matrix(0.06 0 0 -0.06 0 0)">
<path style="stroke: none; stroke-width: 1; stroke-dasharray: none; stroke-linecap: butt; stroke-dashoffset: 0; stroke-linejoin: miter; stroke-miterlimit: 4; fill: rgb(0,0,0); fill-rule: nonzero; opacity: 1;" transform=" translate(-5060.49, -5168.46)" d="M 3106 8699 c -355 -41 -704 -207 -972 -461 c -247 -234 -439 -580 -513 -923 c -41 -186 -42 -272 -39 -2285 l 4 -1935 l 21 -95 c 78 -344 189 -558 415 -805 c 311 -340 660 -511 1128 -554 c 139 -13 3357 -14 3681 -1 c 248 10 356 26 529 82 c 149 48 209 74 315 135 c 414 239 693 612 810 1081 c 57 227 55 146 55 2217 c 0 1326 -3 1938 -11 2000 c -37 304 -192 664 -396 920 c -209 263 -502 460 -829 560 c -246 74 -75 68 -2209 71 c -1056 1 -1951 -2 -1989 -7 z m 2097 -278 c 277 -71 457 -258 512 -530 c 23 -113 13 -241 -27 -344 c -7 -18 -16 -26 -25 -22 c -8 3 -46 10 -85 17 c -63 10 -69 13 -65 32 c 34 142 38 177 33 241 c -11 138 -59 230 -164 318 c -98 81 -191 116 -312 117 c -128 0 -244 -46 -333 -132 c -108 -106 -147 -201 -147 -356 c 1 -54 7 -125 14 -160 l 14 -63 l -35 -14 c -20 -8 -42 -15 -49 -15 c -23 0 -16 -14 21 -37 c 44 -29 105 -30 243 -3 c 148 29 338 27 524 -4 c 79 -14 159 -31 179 -40 c 19 -8 75 -22 125 -31 c 112 -21 174 -45 349 -132 c 171 -86 284 -158 401 -256 c 446 -375 705 -776 829 -1281 c 46 -191 56 -275 57 -494 c 2 -265 -25 -436 -108 -679 c -126 -373 -386 -724 -755 -1018 c -255 -204 -498 -321 -854 -409 c -301 -75 -690 -75 -995 0 c -265 66 -461 151 -667 290 c -389 262 -651 556 -838 939 c -178 365 -231 869 -139 1325 c 86 430 302 823 633 1150 c 214 212 424 364 642 463 c 41 19 103 48 139 64 c 36 17 91 38 123 47 c 34 10 57 22 57 30 c 0 8 -14 40 -31 72 c -43 83 -59 153 -59 265 c 0 233 108 439 299 568 c 68 47 88 55 186 81 c 93 25 212 25 308 1 z m -87 -426 c 24 -24 24 -25 22 -192 l -3 -168 l -57 -3 l -58 -3 l 0 185 c 0 166 2 186 18 195 c 28 17 51 13 78 -14 z m -268 -21 c 21 -15 22 -21 22 -180 c 0 -164 0 -164 -24 -175 c -32 -15 -77 0 -94 32 c -9 17 -12 61 -10 153 l 4 128 l 32 29 c 37 34 40 34 70 13 z m 509 -8 c 28 -24 28 -25 31 -166 c 4 -160 -3 -180 -62 -180 c -60 0 -61 3 -59 186 c 2 91 6 170 9 175 c 10 17 53 9 81 -15 z m 1407 -178 c 38 -19 497 -482 518 -522 c 57 -110 -44 -266 -171 -266 c -42 0 -43 1 -329 291 c -158 159 -292 300 -299 312 c -55 98 70 217 211 201 c 27 -3 59 -10 70 -16 z m -3243 -3 c 90 -32 148 -103 134 -166 c -4 -19 -49 -71 -137 -156 c -130 -128 -290 -291 -384 -391 c -36 -39 -60 -55 -89 -62 c -86 -20 -162 14 -202 89 c -30 57 -31 133 -3 176 c 32 49 478 492 513 509 c 41 20 112 20 168 1 z m 199 -491 c 60 -61 64 -67 46 -77 c -77 -47 -228 -172 -302 -250 l -89 -94 l -57 51 l -57 51 l 192 193 c 105 105 194 192 197 192 c 3 0 35 -30 70 -66 z m 2944 -131 l 197 -198 l -45 -42 c -26 -23 -46 -49 -46 -58 c 0 -8 -1 -15 -3 -15 c -2 0 -77 73 -167 163 c -91 90 -186 176 -212 192 l -47 29 l 57 62 c 31 34 60 62 63 63 c 4 0 95 -88 203 -196 z m -469 -4299 c 1082 -6 1012 -1 1041 -70 c 13 -31 13 -38 -3 -64 c -36 -61 117 -58 -2203 -53 l -2125 4 l -27 29 c -32 35 -34 49 -13 90 c 32 62 14 60 535 61 c 261 1 723 5 1025 9 c 303 4 604 6 670 4 c 66 -3 561 -7 1100 -10 z" stroke-linecap="round"></path>
</g>
		<g transform="matrix(0.06 0 0 -0.06 2.08 -4.05)">
<path style="stroke: none; stroke-width: 1; stroke-dasharray: none; stroke-linecap: butt; stroke-dashoffset: 0; stroke-linejoin: miter; stroke-miterlimit: 4; fill: rgb(0,0,0); fill-rule: nonzero; opacity: 1;" transform=" translate(-5060.29, -5269.87)" d="M 4838 7179 c -167 -20 -414 -97 -593 -187 c -540 -269 -982 -869 -1074 -1457 c -74 -472 22 -904 295 -1316 c 180 -273 484 -541 769 -679 c 536 -259 1131 -251 1675 21 c 539 271 935 788 1031 1348 c 45 266 44 483 -6 702 c -91 402 -291 762 -577 1035 c -328 313 -685 486 -1103 534 c -105 12 -307 11 -417 -1 z m 566 -203 c 266 -62 434 -143 686 -332 c 149 -111 370 -372 477 -562 c 83 -147 159 -350 201 -532 c 27 -116 35 -265 23 -404 c -20 -232 -49 -356 -132 -555 c -88 -211 -201 -374 -388 -561 c -149 -149 -331 -284 -463 -344 c -91 -41 -236 -89 -348 -115 c -220 -52 -555 -54 -765 -6 c -318 72 -505 170 -786 413 c -139 120 -190 177 -274 303 c -138 207 -238 448 -276 665 c -26 146 -31 413 -10 549 c 88 580 517 1144 1051 1381 c 137 60 305 108 455 128 c 17 2 120 3 230 2 c 178 -2 213 -5 319 -30 z" stroke-linecap="round"></path>
</g>
		<g transform="matrix(0.06 0 0 -0.06 3.9 -63.62)">
<path style="stroke: none; stroke-width: 1; stroke-dasharray: none; stroke-linecap: butt; stroke-dashoffset: 0; stroke-linejoin: miter; stroke-miterlimit: 4; fill: rgb(0,0,0); fill-rule: nonzero; opacity: 1;" transform=" translate(-5060.72, -6279.61)" d="M 4659 6410 c -88 -30 -156 -107 -166 -188 c -5 -41 -2 -53 15 -70 c 20 -20 27 -20 559 -15 c 605 6 563 0 563 83 c 0 53 -34 109 -92 153 c -67 51 -68 52 -463 52 c -307 0 -378 -3 -416 -15 z" stroke-linecap="round"></path>
</g>
		<g transform="matrix(0.06 0 0 -0.06 3.29 -2.12)">
<path style="stroke: none; stroke-width: 1; stroke-dasharray: none; stroke-linecap: butt; stroke-dashoffset: 0; stroke-linejoin: miter; stroke-miterlimit: 4; fill: rgb(0,0,0); fill-rule: nonzero; opacity: 1;" transform=" translate(-5051.19, -5264.82)" d="M 4493 5962 c -6 -4 -17 -20 -22 -36 c -31 -80 75 -221 186 -247 c 21 -5 88 -6 148 -3 l 110 7 l -3 -421 l -2 -421 l -118 6 c -132 7 -166 -1 -232 -48 c -55 -40 -80 -83 -80 -141 c 0 -39 5 -50 29 -71 l 30 -25 l 513 5 c 355 4 521 9 538 17 c 66 30 59 137 -14 210 c -57 58 -103 69 -237 61 l -108 -7 l -5 33 c -17 108 -21 333 -11 606 l 7 192 l 122 -2 c 140 -2 156 4 228 81 c 59 63 77 116 57 169 l -15 38 l -554 2 c -305 2 -560 -1 -567 -5 z" stroke-linecap="round"></path>
</g>
		<g transform="matrix(0.06 0 0 -0.06 3.51 59.59)">
<path style="stroke: none; stroke-width: 1; stroke-dasharray: none; stroke-linecap: butt; stroke-dashoffset: 0; stroke-linejoin: miter; stroke-miterlimit: 4; fill: rgb(0,0,0); fill-rule: nonzero; opacity: 1;" transform=" translate(-5054.44, -4270.7)" d="M 4530 4412 c -39 -6 -50 -21 -50 -69 c 0 -82 46 -152 126 -192 l 47 -24 l 400 2 c 374 2 403 3 438 22 c 107 54 170 178 121 239 l -17 21 l -520 3 c -286 1 -531 0 -545 -2 z" stroke-linecap="round"></path>
</g>
</g>
</g>
</svg></svg></g></g></svg>